<svg id="Solid" height="512" viewBox="0 0 512 512" width="512" xmlns="http://www.w3.org/2000/svg"><path d="m408 64h-96v8a8.009 8.009 0 0 0 8 8h64a8 8 0 0 1 0 16h-64a24.028 24.028 0 0 1 -24-24v-40h-80v40a24.028 24.028 0 0 1 -24 24h-64a8 8 0 0 1 0-16h64a8.009 8.009 0 0 0 8-8v-8h-96a56.063 56.063 0 0 0 -56 56v344h48v-296a8 8 0 0 1 16 0v55.484l12.974 100.552 138.939 27.788 123.056-27.346 13.031-100.993v-55.485a8 8 0 0 1 16 0v296h48v-344a56.063 56.063 0 0 0 -56-56zm-248 160a8 8 0 0 1 8-8h48a8.009 8.009 0 0 0 8-8v-40a8 8 0 0 1 16 0v40a24.028 24.028 0 0 1 -24 24h-48a8 8 0 0 1 -8-8zm128 64h-16a23.9 23.9 0 0 1 -16-6.131 23.9 23.9 0 0 1 -16 6.131h-16a8 8 0 0 1 0-16h16a8.009 8.009 0 0 0 8-8v-16a8 8 0 0 1 16 0v16a8.009 8.009 0 0 0 8 8h16a8 8 0 0 1 0 16zm56-56h-48a24.028 24.028 0 0 1 -24-24v-40a8 8 0 0 1 16 0v40a8.009 8.009 0 0 0 8 8h48a8 8 0 0 1 0 16z"/><path d="m320 408v56h48.966l9.448-73.23-58.588 13.019c.104 1.392.174 2.793.174 4.211z"/><path d="m291.578 399.155a8 8 0 0 1 -7.156-14.31l8.618-4.309a39.976 39.976 0 0 0 -21.04-11.731v7.195a8 8 0 0 1 -16 0v-9.441l-16-3.2v12.641a8 8 0 0 1 -16 0v-15.841l-16-3.2v11.041a8 8 0 0 1 -16 0v-14.241l-16-3.2v9.441a8 8 0 0 1 -16 0v-12.641l-16-3.2v7.841a8 8 0 0 1 -16 0v-11.041l-16-3.2v31.682l153.569 30.714a8 8 0 0 1 6.431 7.845v72h32v-16h-8a8 8 0 0 1 0-16h8v-16h-8a8 8 0 0 1 0-16h8v-8a39.791 39.791 0 0 0 -2.465-13.823z"/><path d="m384 352a8 8 0 0 1 -16 0v-6.916l-16 3.556v11.36a8 8 0 0 1 -16 0v-7.8l-41.107 9.135a56.3 56.3 0 0 1 21.466 26.839l83.641-18.591v-31.61l-16 3.556z"/><path d="m143.034 464h112.966v-49.441l-122.506-24.502z"/></svg>