<svg id="Layer_1" enable-background="new 0 0 128 128" viewBox="0 0 128 128" xmlns="http://www.w3.org/2000/svg"><path d="m122.3 78.1c-5.4-38.4-20.6-48.5-26.8-51-5.8-2.3-11.5-1.7-15.8 1.6-1.8 1.6-3.2 3.5-4 5.8-1.7-1-3.5-1.8-5.4-2.5v-25.5c0-1-.8-1.8-1.8-1.8h-9c-1 0-1.8.8-1.8 1.8v25.4c-1.9.7-3.7 1.5-5.4 2.5-.8-2.2-2.2-4.2-4-5.8-4.3-3.3-10-3.9-15.8-1.6-6.3 2.5-21.4 12.6-26.8 51-2.4 17.1-.2 29.6 6.7 37.2 6.5 7.1 15.5 8.1 20.9 8.1 1.2 0 3.8-.1 4.1-.1 13.3 0 20-16 20-47.5.1-9-.4-18-1.5-27 2.6-1.3 5.3-1.9 8.1-1.9s5.6.6 8.1 1.9c-1.1 9-1.6 18-1.5 27 0 31.5 6.7 47.5 20 47.5.3 0 2.9.1 4.1.1 5.4 0 14.4-.9 20.9-8.1 6.9-7.5 9.1-20 6.7-37.1zm-68.4-2.4c-.5 22.6-2.5 44.4-17.8 44-4.6-.1-14.4.6-21.1-6.8-6.1-6.7-8-18.3-5.8-34.3 5.2-36.6 19-46 24.7-48.3 4.6-1.8 9.1-1.4 12.3 1.1 1.5 1.3 2.6 3 3.2 4.9-4.6 3.4-8.7 7.4-12 12.1-.7-.2-1.5-.3-2.2-.5-3.7-.9-4.4-5.6-4.4-5.6-.2-1-1.1-1.6-2-1.4s-1.6 1.1-1.4 2c.3 1.7 1 3.3 1.9 4.7-.9.1-1.8.2-2.7.4s-1.5 1.2-1.3 2.1 1.1 1.5 2 1.3c2.7-.5 5.4-.5 8.1.1-2.1 3.3-4 6.7-5.6 10.3-1.2-.2-2.5-.2-3.8-.1-2.1-.4-4.5-2.8-5.3-3.7-.6-.7-1.7-.8-2.5-.2-.7.6-.8 1.7-.2 2.5.8.9 1.7 1.8 2.7 2.6-1 .4-1.9.9-2.7 1.4-.8.6-1 1.6-.4 2.4s1.6 1 2.4.4c1.8-1.1 3.8-1.8 5.9-2 .8-.1 1.6-.1 2.4 0-.5 1.3-.9 2.5-1.3 3.7-.8 2.4.5 5 2.9 5.9-.1 8.4-1.4 16.8-3.7 24.8-.3.9.2 1.9 1.2 2.2.9.3 1.9-.2 2.2-1.2 0 0 0 0 0-.1.7-2.4 1.3-4.8 1.7-7.2.5 1 1.1 2 1.7 2.9.6.8 1.7.9 2.5.3.7-.6.9-1.6.4-2.4 0 0-3.7-4.7-3.1-10.1.4-3.1.6-6.2.6-9.3 1.2-.5 2.1-1.4 2.7-2.5 1.3-3.1 2.9-6 4.8-8.8 1.1 4 .2 11.1-1.2 15.6-.3.9.2 1.9 1.1 2.2s1.9-.2 2.2-1.1c.4-1.3.7-2.6 1-3.9 1 1.1 2.1 2.1 3.3 3 .8.6 1.9.4 2.5-.3.6-.8.4-1.9-.3-2.5-1.8-1.4-4.5-4.1-4.7-5.6.3-3.9.1-8-1.5-10.8 2.7-3.6 5.9-6.7 9.5-9.3.7 8.4 1.3 16.8 1.1 25.1zm10.1-32.4c-14.9 0-24.5 15.7-24.5 15.8-2.5 3.6-4.9 7.6-6.7 11.7-.3.7-1.1.9-1.8.6-.6-.3-.9-.9-.7-1.5 2.8-8.8 10.2-23.7 22-31.4.8-.5 5-2.8 7.7-3.7.7-.2 1.2-.9 1.2-1.7v-24.8h5.5v24.9c0 .8.5 1.4 1.2 1.7 2.7.9 6.9 3.2 7.7 3.7 11.9 7.7 19.3 22.6 22 31.4.2.6-.1 1.3-.7 1.5-.7.3-1.4 0-1.8-.6-1.8-4.1-4.1-8.1-6.7-11.7.1-.2-9.7-15.9-24.4-15.9zm49.1 69.6c-6.8 7.5-16.5 6.7-21.1 6.8-15.3.4-17.3-21.4-17.8-44-.2-8.4.4-16.7 1.3-25 3.6 2.6 6.8 5.7 9.5 9.3-1.6 2.7-1.8 6.8-1.5 10.8-.2 1.5-2.8 4.2-4.7 5.6-.8.6-.9 1.7-.3 2.5s1.7.9 2.5.3c1.2-.9 2.3-1.9 3.3-3 .3 1.3.6 2.6 1 3.9.3.9 1.3 1.4 2.2 1.1s1.4-1.3 1.1-2.2c-1.4-4.5-2.3-11.7-1.2-15.6 1.8 2.8 3.4 5.8 4.8 8.8.5 1.2 1.5 2.1 2.7 2.5 0 3.1.2 6.2.6 9.3.7 5.4-3 10-3.1 10.1-.5.8-.4 1.8.4 2.4s1.9.4 2.5-.3c.6-.9 1.2-1.9 1.7-2.9.5 2.4 1.1 4.8 1.7 7.2v.1c.3.9 1.3 1.5 2.2 1.2s1.5-1.3 1.2-2.2c-2.3-8.1-3.5-16.4-3.7-24.8 2.4-.9 3.6-3.5 2.9-5.9-.4-1.1-.8-2.4-1.3-3.7h2.4c2.1.2 4.1.8 5.9 2 .8.6 1.9.4 2.4-.4.6-.8.4-1.9-.4-2.4-.8-.6-1.8-1.1-2.7-1.4 1-.8 1.9-1.6 2.7-2.6.6-.7.5-1.8-.2-2.5-.7-.6-1.8-.5-2.5.2-.8.9-3.2 3.2-5.3 3.7-1.3-.1-2.5-.1-3.8.1-1.6-3.6-3.5-7-5.6-10.3 2.7-.6 5.4-.6 8.1-.1.9.2 1.8-.4 2-1.3s-.4-1.9-1.3-2.1-1.8-.3-2.7-.4c.9-1.4 1.6-3 1.9-4.7.2-1-.5-1.9-1.4-2s-1.9.5-2 1.4c0 0-.8 4.8-4.4 5.6-.8.2-1.5.3-2.2.5-3.3-4.7-7.3-8.7-12-12.1.6-1.9 1.7-3.6 3.2-4.9 3.3-2.6 7.8-3 12.3-1.1 5.7 2.3 19.5 11.6 24.7 48.3 2 15.9.1 27.5-6 34.2z"/></svg>